<svg width="20" height="19" viewBox="0 0 20 19" fill="none" xmlns="http://www.w3.org/2000/svg">
<path d="M13.0664 1.79419H13.0657C12.4435 0.687328 11.2687 0 9.99981 0C8.73156 0 7.55673 0.687328 6.9346 1.79419C0.0982182 13.9429 0.147437 13.5496 0.156062 14.7656C0.156062 16.704 1.73326 18.2812 3.67168 18.2812H16.3279C18.2663 18.2812 19.8435 16.704 19.8442 14.6798C19.8521 13.5445 19.8481 13.8548 13.0664 1.79419ZM13.3918 9.53888L9.5012 15.1639C9.32823 15.4148 9.01206 15.529 8.71295 15.4372C8.41904 15.3458 8.21856 15.0739 8.21856 14.7656V12.6562H5.78106C5.53731 12.6562 5.31137 12.5299 5.18298 12.3225C5.05459 12.1152 5.04292 11.8563 5.15209 11.6386L7.96459 6.01364C8.08407 5.77537 8.32712 5.625 8.59356 5.625H11.4061C11.6368 5.625 11.8524 5.7383 11.9842 5.92781C12.1154 6.11733 12.1456 6.35902 12.0646 6.5753L11.3662 8.4375H12.8123C13.0732 8.4375 13.3129 8.58239 13.4344 8.81311C13.5559 9.04448 13.5394 9.32395 13.3918 9.53888Z" fill="#000D56"/>
</svg>
