<svg width="24" height="24" viewBox="0 0 24 24" fill="none" xmlns="http://www.w3.org/2000/svg">
<g clip-path="url(#clip0)">
<path d="M23.4011 9.24575L20.517 8.95113C20.4128 8.65706 20.2931 8.36812 20.1589 8.08669L21.9901 5.83888C22.223 5.55305 22.2018 5.1374 21.941 4.87666L19.1234 2.05903C18.8627 1.79828 18.447 1.77723 18.1612 2.01014L16.273 3.54841C16.0577 3.72382 15.759 3.76447 15.4932 3.65388L15.4763 3.64692C15.2119 3.5376 15.0301 3.29829 15.0019 3.02198L14.7543 0.598939C14.7168 0.231995 14.4081 -0.046875 14.0393 -0.046875H10.0545C9.68576 -0.046875 9.37686 0.231995 9.33951 0.598939L9.09195 3.02198C9.06375 3.29829 8.88192 3.5376 8.61606 3.64747L8.59994 3.65406C8.33462 3.76429 8.03616 3.72364 7.82101 3.54841L5.93264 2.00995C5.64681 1.77723 5.23116 1.79828 4.97041 2.05903L2.15278 4.87666C1.89203 5.1374 1.87079 5.55305 2.10371 5.83888L3.64198 7.72725C3.81739 7.94258 3.85804 8.24104 3.74836 8.50508L3.74049 8.52376C3.63136 8.78816 3.39186 8.96999 3.11555 8.99819L0.692507 9.24575C0.325746 9.2831 0.046875 9.592 0.046875 9.96077V13.9455C0.046875 14.3143 0.325746 14.6232 0.692507 14.6606L3.11573 14.9081C3.39186 14.9363 3.63136 15.1181 3.74067 15.3831L3.74781 15.4001C3.85804 15.6653 3.81739 15.9637 3.64198 16.179L2.10371 18.0674C1.87079 18.3532 1.89203 18.7689 2.15278 19.0296L4.97041 21.8473C5.23116 22.108 5.64662 22.1291 5.93264 21.8963L7.82083 20.3579C8.03616 20.1825 8.33462 20.142 8.59976 20.2521L8.61752 20.2594C8.88192 20.3687 9.06375 20.608 9.09195 20.8843L9.33932 23.3074C9.37686 23.6741 9.68576 23.9532 10.0544 23.9532H14.0393C14.4079 23.9532 14.7168 23.6741 14.7543 23.3074L15.0017 20.8843C15.0299 20.608 15.2117 20.3687 15.4767 20.2592L15.4939 20.2522C15.759 20.1418 16.0575 20.1825 16.2728 20.3579L18.161 21.8963C18.4468 22.1291 18.8627 22.108 19.1232 21.8473L21.941 19.0296C22.2016 18.7689 22.2228 18.3532 21.9899 18.0674L20.4517 16.179C20.2762 15.9637 20.2358 15.6653 20.3462 15.3992L20.3532 15.3825C20.4625 15.1181 20.7018 14.9363 20.9781 14.9081L23.4011 14.6606C23.7679 14.6232 24.0468 14.3143 24.0468 13.9455V9.96077C24.047 9.592 23.7679 9.2831 23.4011 9.24575ZM12.0471 17.6959C8.88064 17.6959 6.30452 15.1198 6.30452 11.9533C6.30452 8.78688 8.88064 6.21058 12.0471 6.21058C15.2135 6.21058 17.7897 8.78688 17.7897 11.9533C17.7897 15.1198 15.2135 17.6959 12.0471 17.6959Z" fill="#00251A" fill-opacity="0.4"/>
<path d="M12.047 7.64816C9.67322 7.64816 7.74182 9.57956 7.74182 11.9533C7.74182 14.3271 9.67322 16.2585 12.047 16.2585C14.4208 16.2585 16.352 14.3271 16.352 11.9533C16.352 9.57956 14.4208 7.64816 12.047 7.64816ZM14.5762 11.1691L11.9913 13.754C11.8509 13.8943 11.6671 13.9646 11.483 13.9646C11.2992 13.9646 11.1152 13.8944 10.9749 13.754L9.51776 12.2968C9.23706 12.0161 9.23706 11.5611 9.51776 11.2804C9.79847 10.9997 10.2535 10.9997 10.5342 11.2804L11.4832 12.2293L13.5598 10.1527C13.8405 9.87198 14.2955 9.87198 14.5762 10.1527C14.8569 10.4334 14.8569 10.8884 14.5762 11.1691Z" fill="#00251A" fill-opacity="0.4"/>
</g>
<defs>
<clipPath id="clip0">
<rect width="24" height="24" fill="white"/>
</clipPath>
</defs>
</svg>
